<svg width="300" height="72" viewBox="0 0 300 72" fill="none" xmlns="http://www.w3.org/2000/svg">
<path fill-rule="evenodd" clip-rule="evenodd" d="M60.4648 6C69.2812 6 75 11.7187 75 20.5352V52.4648C75 61.2812 69.2812 67 60.4648 67H28.5352C19.7187 67 14 61.2812 14 52.4648V20.5352C14 11.7187 19.7187 6 28.5352 6H60.4648Z" fill="black"/>
<path d="M22.6417 33.9583C22.6417 26.659 28.5504 20.7417 35.8391 20.7417H53.1608C60.4496 20.7417 66.3583 26.659 66.3583 33.9583V47.175H35.8391C28.5504 47.175 22.6417 41.2577 22.6417 33.9583Z" fill="#4845D2"/>
<path d="M53.0921 25.825H35.9079C31.3886 25.825 27.725 29.4664 27.725 33.9583C27.725 38.4503 31.3886 42.0917 35.9079 42.0917H53.0921C57.6114 42.0917 61.275 38.4503 61.275 33.9583C61.275 29.4664 57.6114 25.825 53.0921 25.825Z" fill="#A5B4FC"/>
<path d="M35.8583 38.025C38.1043 38.025 39.925 36.2043 39.925 33.9583C39.925 31.7124 38.1043 29.8917 35.8583 29.8917C33.6124 29.8917 31.7917 31.7124 31.7917 33.9583C31.7917 36.2043 33.6124 38.025 35.8583 38.025Z" fill="black"/>
<path d="M34.0792 32.9417C34.5003 32.9417 34.8417 32.6003 34.8417 32.1792C34.8417 31.758 34.5003 31.4167 34.0792 31.4167C33.658 31.4167 33.3167 31.758 33.3167 32.1792C33.3167 32.6003 33.658 32.9417 34.0792 32.9417Z" fill="white"/>
<path d="M54.1583 38.025C56.4043 38.025 58.225 36.2043 58.225 33.9583C58.225 31.7124 56.4043 29.8917 54.1583 29.8917C51.9124 29.8917 50.0917 31.7124 50.0917 33.9583C50.0917 36.2043 51.9124 38.025 54.1583 38.025Z" fill="black"/>
<path d="M52.3792 32.9417C52.8003 32.9417 53.1417 32.6003 53.1417 32.1792C53.1417 31.758 52.8003 31.4167 52.3792 31.4167C51.9581 31.4167 51.6167 31.758 51.6167 32.1792C51.6167 32.6003 51.9581 32.9417 52.3792 32.9417Z" fill="white"/>
<path d="M45.5702 50.546C45.5702 49.5856 46.3488 48.807 47.3092 48.807H66.4386V48.807C66.4386 50.7279 64.8814 52.2851 62.9605 52.2851H47.3092C46.3488 52.2851 45.5702 51.5065 45.5702 50.546V50.546Z" fill="#4845D2"/>
<path d="M97.384 46.412C97.7067 46.4413 98.0733 46.4707 98.484 46.5C98.924 46.5 99.4373 46.5 100.024 46.5C103.456 46.5 105.993 45.6347 107.636 43.904C109.308 42.1733 110.144 39.7827 110.144 36.732C110.144 33.5347 109.352 31.1147 107.768 29.472C106.184 27.8293 103.676 27.008 100.244 27.008C99.7747 27.008 99.2907 27.0227 98.792 27.052C98.2933 27.052 97.824 27.0813 97.384 27.14V46.412ZM117.228 36.732C117.228 39.372 116.817 41.6747 115.996 43.64C115.175 45.6053 114.001 47.2333 112.476 48.524C110.98 49.8147 109.147 50.7827 106.976 51.428C104.805 52.0733 102.371 52.396 99.672 52.396C98.44 52.396 97.0027 52.3373 95.36 52.22C93.7173 52.132 92.104 51.9267 90.52 51.604V21.904C92.104 21.6107 93.7467 21.42 95.448 21.332C97.1787 21.2147 98.66 21.156 99.892 21.156C102.503 21.156 104.864 21.4493 106.976 22.036C109.117 22.6227 110.951 23.5467 112.476 24.808C114.001 26.0693 115.175 27.6827 115.996 29.648C116.817 31.6133 117.228 33.9747 117.228 36.732ZM120.761 40.604C120.761 38.5507 121.069 36.7613 121.685 35.236C122.331 33.6813 123.167 32.3907 124.193 31.364C125.22 30.3373 126.393 29.56 127.713 29.032C129.063 28.504 130.441 28.24 131.849 28.24C135.135 28.24 137.731 29.252 139.637 31.276C141.544 33.2707 142.497 36.2187 142.497 40.12C142.497 40.5013 142.483 40.9267 142.453 41.396C142.424 41.836 142.395 42.232 142.365 42.584H127.493C127.64 43.9333 128.271 45.004 129.385 45.796C130.5 46.588 131.996 46.984 133.873 46.984C135.076 46.984 136.249 46.8813 137.393 46.676C138.567 46.4413 139.52 46.1627 140.253 45.84L141.133 51.164C140.781 51.34 140.312 51.516 139.725 51.692C139.139 51.868 138.479 52.0147 137.745 52.132C137.041 52.2787 136.279 52.396 135.457 52.484C134.636 52.572 133.815 52.616 132.993 52.616C130.911 52.616 129.092 52.308 127.537 51.692C126.012 51.076 124.736 50.24 123.709 49.184C122.712 48.0987 121.964 46.8227 121.465 45.356C120.996 43.8893 120.761 42.3053 120.761 40.604ZM136.161 38.096C136.132 37.5387 136.029 36.996 135.853 36.468C135.707 35.94 135.457 35.4707 135.105 35.06C134.783 34.6493 134.357 34.312 133.829 34.048C133.331 33.784 132.7 33.652 131.937 33.652C131.204 33.652 130.573 33.784 130.045 34.048C129.517 34.2827 129.077 34.6053 128.725 35.016C128.373 35.4267 128.095 35.9107 127.889 36.468C127.713 36.996 127.581 37.5387 127.493 38.096H136.161ZM146.897 29.648C148.011 29.3253 149.449 29.032 151.209 28.768C152.969 28.4747 154.817 28.328 156.753 28.328C158.718 28.328 160.346 28.592 161.637 29.12C162.957 29.6187 163.998 30.3373 164.761 31.276C165.523 32.2147 166.066 33.3293 166.389 34.62C166.711 35.9107 166.873 37.348 166.873 38.932V52H160.317V39.724C160.317 37.612 160.038 36.116 159.481 35.236C158.923 34.356 157.882 33.916 156.357 33.916C155.887 33.916 155.389 33.9453 154.861 34.004C154.333 34.0333 153.863 34.0773 153.453 34.136V52H146.897V29.648ZM171.927 23.092L178.483 22.036V28.856H186.359V34.312H178.483V42.452C178.483 43.8307 178.718 44.9307 179.187 45.752C179.686 46.5733 180.668 46.984 182.135 46.984C182.839 46.984 183.558 46.9253 184.291 46.808C185.054 46.6613 185.743 46.4707 186.359 46.236L187.283 51.34C186.491 51.6627 185.611 51.9413 184.643 52.176C183.675 52.4107 182.487 52.528 181.079 52.528C179.29 52.528 177.808 52.2933 176.635 51.824C175.462 51.3253 174.523 50.6507 173.819 49.8C173.115 48.92 172.616 47.864 172.323 46.632C172.059 45.4 171.927 44.036 171.927 42.54V23.092ZM205.866 40.252C205.866 36.028 204.311 33.916 201.202 33.916C200.527 33.916 199.852 34.004 199.178 34.18C198.532 34.356 198.004 34.576 197.594 34.84V46.764C197.916 46.8227 198.327 46.8813 198.826 46.94C199.324 46.9693 199.867 46.984 200.454 46.984C202.243 46.984 203.592 46.368 204.502 45.136C205.411 43.904 205.866 42.276 205.866 40.252ZM212.554 40.428C212.554 42.276 212.275 43.948 211.718 45.444C211.19 46.94 210.412 48.216 209.386 49.272C208.359 50.328 207.098 51.1493 205.602 51.736C204.106 52.2933 202.404 52.572 200.498 52.572C199.706 52.572 198.87 52.528 197.99 52.44C197.139 52.3813 196.288 52.2933 195.438 52.176C194.616 52.0587 193.824 51.9267 193.062 51.78C192.299 51.604 191.624 51.428 191.038 51.252V18.912L197.594 17.856V29.384C198.327 29.0613 199.09 28.812 199.882 28.636C200.674 28.46 201.524 28.372 202.434 28.372C204.076 28.372 205.528 28.6653 206.79 29.252C208.051 29.8093 209.107 30.616 209.958 31.672C210.808 32.728 211.454 34.004 211.894 35.5C212.334 36.9667 212.554 38.6093 212.554 40.428ZM236.688 51.208C235.574 51.5307 234.136 51.824 232.376 52.088C230.616 52.3813 228.768 52.528 226.832 52.528C224.867 52.528 223.224 52.264 221.904 51.736C220.614 51.208 219.587 50.4747 218.824 49.536C218.062 48.568 217.519 47.424 217.196 46.104C216.874 44.784 216.712 43.332 216.712 41.748V28.856H223.268V40.956C223.268 43.068 223.547 44.5933 224.104 45.532C224.662 46.4707 225.703 46.94 227.228 46.94C227.698 46.94 228.196 46.9253 228.724 46.896C229.252 46.8373 229.722 46.7787 230.132 46.72V28.856H236.688V51.208ZM247.77 40.252C247.77 42.276 248.225 43.904 249.134 45.136C250.044 46.368 251.393 46.984 253.182 46.984C253.769 46.984 254.312 46.9693 254.81 46.94C255.309 46.8813 255.72 46.8227 256.042 46.764V34.84C255.632 34.576 255.089 34.356 254.414 34.18C253.769 34.004 253.109 33.916 252.434 33.916C249.325 33.916 247.77 36.028 247.77 40.252ZM262.598 51.252C262.012 51.428 261.337 51.604 260.574 51.78C259.812 51.9267 259.005 52.0587 258.154 52.176C257.333 52.2933 256.482 52.3813 255.602 52.44C254.752 52.528 253.93 52.572 253.138 52.572C251.232 52.572 249.53 52.2933 248.034 51.736C246.538 51.1787 245.277 50.3867 244.25 49.36C243.224 48.304 242.432 47.0427 241.874 45.576C241.346 44.08 241.082 42.408 241.082 40.56C241.082 38.6827 241.317 36.996 241.786 35.5C242.256 33.9747 242.93 32.684 243.81 31.628C244.69 30.572 245.761 29.7653 247.022 29.208C248.313 28.6507 249.78 28.372 251.422 28.372C252.332 28.372 253.138 28.46 253.842 28.636C254.576 28.812 255.309 29.0613 256.042 29.384V18.912L262.598 17.856V51.252Z" fill="black"/>
</svg>
