<svg width="24" height="24" viewBox="0 0 24 24" fill="none" xmlns="http://www.w3.org/2000/svg">
<path d="M13.8 6.70001L5.19999 15.3C5.09999 15.4 5.10001 15.4 5.10001 15.5L3.79996 19.5C3.69996 19.9 4.10004 20.3 4.50004 20.2L6.10001 19.7L8.60001 18.9C8.70001 18.9 8.79996 18.8 8.79996 18.8L17.3999 10.2L13.8 6.70001Z" fill="#1A1A1A"/>
<path d="M19.5 4.50001C18.5 3.60001 17 3.60001 16 4.50001L14.7999 5.70002L18.2 9.09999L19.3999 7.90004C19.8999 7.40004 20.1 6.80002 20.1 6.20002C20.2 5.60002 20 4.90001 19.5 4.50001Z" fill="#1A1A1A"/>
</svg>
