<svg width="16" height="18" viewBox="0 0 16 18" fill="none" xmlns="http://www.w3.org/2000/svg">
<path d="M15 2.90002H11.6L11.1 2.09998C10.4 0.999976 9.3 0.400024 8 0.400024C6.7 0.400024 5.60002 0.999976 4.90002 2.09998L4.40002 2.90002H1C0.6 2.90002 0.200012 3.20001 0.200012 3.70001C0.200012 4.20001 0.5 4.5 1 4.5H2.30005V14.7C2.30005 16.4 3.60005 17.7 5.30005 17.7H10.7C12.4 17.7 13.7 16.4 13.7 14.7V4.5H15C15.4 4.5 15.8 4.20001 15.8 3.70001C15.8 3.20001 15.4 2.90002 15 2.90002ZM6.20001 2.90002C6.60001 2.30002 7.3 1.90002 8 1.90002C8.7 1.90002 9.40005 2.30002 9.80005 2.90002H6.20001ZM6.80005 13.8C6.80005 14.2 6.5 14.6 6 14.6C5.6 14.6 5.20001 14.3 5.20001 13.8V7.40002C5.20001 7.00002 5.5 6.59998 6 6.59998C6.4 6.59998 6.80005 6.90002 6.80005 7.40002V13.8ZM10.7 13.8C10.7 14.2 10.4 14.6 9.90002 14.6C9.50002 14.6 9.10004 14.3 9.10004 13.8V7.40002C9.10004 7.00002 9.40002 6.59998 9.90002 6.59998C10.3 6.59998 10.7 6.90002 10.7 7.40002V13.8Z" fill="#1A1A1A"/>
</svg>
